<svg xmlns="http://www.w3.org/2000/svg" width="96" height="96" viewBox="0 0 96 96"><title>ROUND BADGE DEFAULT</title><g fill="none"><circle cx="48" cy="48" r="48" fill="#fff"/><path fill="#E6E6E6" d="M48 95c25.957 0 47-21.043 47-47S73.957 1 48 1 1 22.043 1 48s21.043 47 47 47zm0 1C21.49 96 0 74.51 0 48S21.49 0 48 0s48 21.49 48 48-21.49 48-48 48z"/><path fill="#EF0D32" d="M50.772 31.281v-.001l-.001-.001-.836-.008c-1.639-.006-3.112-.723-3.409-2.446-.454-2.637 1.693-4.523 4.108-4.94a6.754 6.754 0 0 1 3.654.354l-.134-.778L62.636 22l.621 3.61-2.241.279 1.309 7.602-4.035.695-1.308-7.602-2.206.486-.471-2.736-.584 2.949c-.773-.353-1.603-.589-2.486-.436-.353.061-.846.282-.768.739.071.412.582.385.904.405l.949.049c1.774.089 3.168.79 3.493 2.675.456 2.652-1.719 4.376-4.133 4.793-1.414.244-3.084.137-4.446-.281l.697-3.351.234.127c.821.451 1.752.746 2.693.583.413-.071 1.003-.339.917-.84-.088-.515-.621-.439-1.005-.464zm-4.119 1.787l.001.001v.001l.517 3.004 1.995-.344 1.912 11.108-4.035.695-4.506.776-2.454-3.248.613 3.565-3.947.68-1.907-11.078-4.071.701c2.288-.177 4.115.871 4.548 3.388.391 2.269-.78 3.927-3.033 4.315l-2.061.355.576 3.344-3.888.67-1.912-11.108 4.661-.803-1.907-11.078 4.698-.809c2.164-.373 4.432-.233 4.874 2.33.169.986-.139 2.01-1.073 2.49l.015.088c1.295.217 2.196.957 2.427 2.298.351 2.042-1.18 3.162-2.889 3.622l3.779-.651-1.907-11.078 7.466-1.287.522 3.035-3.402.586.183 1.061 3.108-.535.497 2.888-3.107.535.187 1.09 3.52-.606zm-15.215 9.78c-.15-.869-.981-.771-1.644-.657l-.383.066.332 1.93.398-.069c.707-.122 1.452-.372 1.298-1.271zm.792-11.209l.001-.001.368-.063c.589-.101 1.241-.274 1.11-1.04-.105-.604-.559-.692-1.016-.614l-.457.078-.28.048.274 1.591zm1.177 4.105v-.001c.647-.111 1.617-.293 1.46-1.207-.159-.928-1.187-.736-1.836-.624l-.398.069.317 1.841.457-.078zm6.504 6.645l-.001-.001v.001c.663-.114 1.308-.331 1.166-1.156-.15-.869-.754-.857-1.461-.735l-.31.053.325 1.886.28-.048zm4.243 1.924h.001l-.001.001 2.851 2.998-1.869-10.858-4.704.81c2.223-.187 4.133.627 4.569 3.156.292 1.694-.254 2.486-1.653 3.258l.015.088c.248.124.512.246.791.546zm10.621-3.831l.001.001.001-.001c.21 1.223 1.419 1.985 2.626 1.778.942-.162 1.596-.685 2.134-1.43l.597 4.175c-.578.434-2.073.813-2.795.937-3.167.544-6.064-1.49-6.609-4.657-.559-3.241 1.543-6.272 4.798-6.833a8.553 8.553 0 0 1 2.788-.011l.845 4.208c-.752-.492-1.636-.871-2.564-.711-1.208.208-2.029 1.336-1.821 2.544zm4.766-3.011v-.003.001l1.031-.177a5.848 5.848 0 0 1 4.823-4.926 8.553 8.553 0 0 1 2.788-.011l.631 2.789c-1.339.064-2.968.375-3.781 1.379l3.476-.598-.163 1.696-3.726.641.023.133.033.192.045.174 4.153-.715-.163 1.696-2.916.502c1.079.633 2.591.342 3.824-.158L70 42.917c-.577.433-2.073.812-2.795.937-2.519.434-4.8-.751-5.975-2.823l-1.488.256.163-1.696.737-.127-.046-.265-.041-.235-1.178.203.163-1.696zm-.337 10.015c.432 0 .882.278.882.753 0 .469-.45.735-.882.735s-.883-.267-.883-.735c0-.474.451-.753.883-.753zm3.341-.16v.001-1.055h2.505c-.017.736-.011 1.334-.539 1.909-.474.521-1.208.794-1.895.794-1.363 0-2.464-.842-2.464-2.276 0-1.452 1.072-2.335 2.476-2.335.776 0 1.842.385 2.192 1.149l-1.517.557c-.124-.232-.355-.344-.616-.344-.581 0-.901.497-.901 1.037 0 .492.308.954.836.954.255 0 .58-.125.657-.391h-.735zm5.545-.142l-.001-.001-.001.001c.089.065.184.13.273.266l.971 1.452h-1.871l-.711-1.434h-.03v1.434h-1.587v-4.469h1.961c1.013 0 1.86.426 1.86 1.553 0 .681-.267.954-.865 1.161v.036zm-1.256-.77c.267 0 .533-.042.533-.373 0-.35-.238-.386-.521-.386h-.124v.759h.112z"/><path fill="#999" d="M11 65.828V64.71l3.523-3.471v-.078L11 57.755v-1.131h6.513v1.365h-4.342l3.38 3.133v.143l-3.198 3.211h4.277v1.352H11zm11.063.169c-.546 0-1.007-.078-1.384-.234a2.43 2.43 0 0 1-.91-.624 2.42 2.42 0 0 1-.5-.884 3.344 3.344 0 0 1-.156-1.014v-3.705h1.56v3.419c0 .225.022.442.065.65.043.208.119.392.228.553.108.16.253.288.435.383.182.095.407.143.676.143.269 0 .492-.048.669-.143a1.24 1.24 0 0 0 .436-.383c.113-.16.193-.344.241-.553.048-.208.071-.425.071-.65v-3.419h1.547v3.705c0 .347-.054.685-.162 1.014a2.412 2.412 0 0 1-.52.884 2.55 2.55 0 0 1-.923.624c-.377.156-.834.234-1.372.234zm8.216-.169h-1.69l-2.522-6.292h1.729l1.638 4.628h.039l1.651-4.628h1.664l-2.509 6.292zm8.047-4.524a1.857 1.857 0 0 0-.416-.351 2.584 2.584 0 0 0-1.365-.352c-.191 0-.375.015-.553.046-.178.03-.334.078-.468.143a1.045 1.045 0 0 0-.325.234.476.476 0 0 0-.123.331c0 .139.045.256.136.351.091.095.214.173.37.234.156.061.334.104.533.13.199.026.412.039.637.039h1.131v1.118h-1.027c-.624 0-1.098.056-1.423.169-.325.113-.488.308-.488.585 0 .139.045.253.137.344a.99.99 0 0 0 .364.221c.152.056.321.097.507.124.186.026.375.039.566.039.381 0 .702-.035.962-.104.26-.069.477-.147.65-.234.199-.095.36-.212.481-.351l.806.923-.267.24a2.746 2.746 0 0 1-.566.358c-.243.121-.544.23-.904.325s-.786.143-1.28.143a5.6 5.6 0 0 1-1.163-.117 3.556 3.556 0 0 1-.968-.344 1.956 1.956 0 0 1-.663-.572 1.334 1.334 0 0 1-.247-.799c0-.26.054-.485.163-.676.108-.191.243-.349.403-.474a1.69 1.69 0 0 1 .507-.279c.178-.061.34-.1.488-.117v-.026a2.64 2.64 0 0 1-.455-.156 1.735 1.735 0 0 1-.436-.279 1.448 1.448 0 0 1-.331-.422 1.206 1.206 0 0 1-.13-.572c0-.286.076-.542.227-.767.152-.225.362-.418.631-.578.269-.16.583-.282.942-.364.36-.082.747-.123 1.163-.123.442 0 .821.045 1.138.136.316.091.583.197.8.319.217.121.386.247.507.377s.208.234.26.312l-.91.819zm3.952 7.644h-1.521v-6.162c0-.546.089-1.031.267-1.456.178-.425.42-.782.728-1.072.308-.29.672-.513 1.092-.669a3.91 3.91 0 0 1 1.372-.234c.477 0 .919.082 1.326.247a3.142 3.142 0 0 1 1.761 1.762c.169.412.253.86.253 1.346 0 .485-.084.929-.253 1.332-.169.403-.403.75-.702 1.04-.299.29-.652.516-1.059.676-.407.16-.849.24-1.326.24-.407 0-.778-.071-1.112-.215a2.074 2.074 0 0 1-.786-.552h-.039v3.718zm3.757-6.266c0-.295-.041-.565-.123-.813a1.853 1.853 0 0 0-.364-.644 1.604 1.604 0 0 0-.598-.422 2.082 2.082 0 0 0-.813-.149 1.85 1.85 0 0 0-.773.156 1.843 1.843 0 0 0-.988 1.073 2.294 2.294 0 0 0-.137.8c0 .303.048.581.143.832.095.251.227.466.397.643.169.178.368.314.598.409.23.095.483.143.761.143.312 0 .585-.052.819-.156.234-.104.431-.247.591-.429.16-.182.282-.396.364-.644a2.52 2.52 0 0 0 .123-.799zm6.734 6.266h-1.56v-3.523l-2.951-5.889h1.768l1.976 4.472 1.885-4.472h1.703l-2.821 5.889v3.523zM59.321 56h1.287l-.13 2.6h-1.014l-.143-2.6zm2.236 8.905a2.26 2.26 0 0 1-.949.813 2.948 2.948 0 0 1-1.261.279c-.485 0-.919-.089-1.3-.266a2.953 2.953 0 0 1-.975-.722 3.174 3.174 0 0 1-.617-1.059 3.802 3.802 0 0 1-.215-1.281c0-.451.074-.877.221-1.28a3.19 3.19 0 0 1 .624-1.053c.269-.299.594-.535.975-.709.381-.173.806-.26 1.274-.26.468 0 .884.095 1.248.286.364.191.659.438.884.741h.026v-.871h1.56v6.305h-1.469v-.923h-.026zm-3.77-2.236c0 .269.041.526.123.774.082.247.204.464.364.65s.357.334.591.442c.234.108.503.163.806.163.286 0 .546-.054.78-.163.234-.108.435-.253.605-.435a1.89 1.89 0 0 0 .39-.644c.091-.247.136-.509.136-.787 0-.269-.045-.526-.136-.773-.091-.247-.221-.464-.39-.65s-.37-.334-.605-.442a1.84 1.84 0 0 0-.78-.163 1.89 1.89 0 0 0-.806.163 1.72 1.72 0 0 0-.591.442c-.16.186-.282.403-.364.65a2.439 2.439 0 0 0-.123.773zm6.266-3.133h5.993v1.235h-2.223v5.057h-1.56v-5.057h-2.21v-1.235zm8.528 0l.019.487.007.474h.026c.078-.156.188-.303.332-.442a2.407 2.407 0 0 1 1.078-.604c.212-.056.427-.085.644-.085.416 0 .773.069 1.073.208.299.139.548.325.748.559.199.234.347.509.442.825.095.316.143.648.143.995v6.994h-1.547v-6.578c0-.243-.022-.468-.065-.676a1.533 1.533 0 0 0-.221-.546 1.064 1.064 0 0 0-.416-.364 1.442 1.442 0 0 0-.65-.13c-.451 0-.819.165-1.105.494-.286.329-.429.78-.429 1.352v3.328H71.1v-4.68l-.007-.793-.02-.819h1.508zm9.633 5.122c.225.052.461.123.709.215.247.091.474.212.683.364.208.152.379.344.513.578.134.234.201.52.201.858 0 .355-.076.669-.227.942a2.752 2.752 0 0 1-.559.709 3.613 3.613 0 0 1-1.333.754l-1.092-.793c.191-.069.386-.149.585-.24.199-.091.379-.195.54-.312.16-.117.29-.247.39-.39a.809.809 0 0 0 .149-.475.822.822 0 0 0-.117-.462.887.887 0 0 0-.293-.279 1.616 1.616 0 0 0-.383-.162l-.39-.097-.507-.117a4.802 4.802 0 0 1-.63-.215 3.78 3.78 0 0 1-.663-.358 2.55 2.55 0 0 1-1.014-1.352 3.339 3.339 0 0 1-.162-1.092c0-.537.091-1.016.273-1.437a3.07 3.07 0 0 1 .741-1.059 3.277 3.277 0 0 1 1.079-.657 3.687 3.687 0 0 1 1.3-.227c.243 0 .487.022.734.065.247.043.481.108.702.195.221.087.425.195.611.325s.344.282.475.455l-.962 1.001a1.747 1.747 0 0 0-.572-.527c-.251-.152-.568-.227-.949-.227-.269 0-.518.043-.748.13-.23.087-.429.214-.598.383a1.77 1.77 0 0 0-.397.63 2.412 2.412 0 0 0-.143.858c0 .364.058.663.175.897.117.234.271.425.462.572.191.147.409.26.657.338.247.078.5.147.76.208z"/></g></svg>